{
  "accessors": [
    {
      "bufferView": 0,
      "componentType": 5125,
      "count": 2790,
      "type": "SCALAR"
    },
    {
      "bufferView": 1,
      "componentType": 5126,
      "count": 1378,
      "max": [
        2.8632550239563,
        1.89938926696777,
        1.32423520088196
      ],
      "min": [
        -2.8632550239563,
        -1.72774171829224,
        -1.96889162063599
      ],
      "type": "VEC3"
    },
    {
      "bufferView": 2,
      "componentType": 5126,
      "count": 1378,
      "type": "VEC3"
    },
    {
      "bufferView": 3,
      "componentType": 5126,
      "count": 1378,
      "type": "VEC4"
    },
    {
      "bufferView": 4,
      "componentType": 5126,
      "count": 1378,
      "type": "VEC2"
    }
  ],
  "asset": {
    "generator": "Adobe Substance 3D Painter 9.1.2",
    "version": "2.0"
  },
  "bufferViews": [
    {
      "buffer": 0,
      "byteLength": 11160,
      "target": 34963
    },
    {
      "buffer": 0,
      "byteLength": 16536,
      "byteOffset": 11160,
      "target": 34962
    },
    {
      "buffer": 0,
      "byteLength": 16536,
      "byteOffset": 27696,
      "target": 34962
    },
    {
      "buffer": 0,
      "byteLength": 22048,
      "byteOffset": 44232,
      "target": 34962
    },
    {
      "buffer": 0,
      "byteLength": 11024,
      "byteOffset": 66280,
      "target": 34962
    }
  ],
  "buffers": [
    {
      "byteLength": 77304,
      "uri": "heavybody.bin"
    }
  ],
  "images": [
    {
      "uri": "DefaultMaterial_baseColor.png"
    },
    {
      "uri": "DefaultMaterial_occlusionRoughnessMetallic.png"
    },
    {
      "uri": "DefaultMaterial_normal.png"
    }
  ],
  "materials": [
    {
      "alphaMode": "OPAQUE",
      "name": "DefaultMaterial",
      "normalTexture": {
        "index": 2
      },
      "occlusionTexture": {
        "index": 1
      },
      "pbrMetallicRoughness": {
        "baseColorTexture": {
          "index": 0
        },
        "metallicRoughnessTexture": {
          "index": 1
        }
      }
    }
  ],
  "meshes": [
    {
      "name": "Cube.064",
      "primitives": [
        {
          "attributes": {
            "NORMAL": 2,
            "POSITION": 1,
            "TANGENT": 3,
            "TEXCOORD_0": 4
          },
          "indices": 0,
          "material": 0,
          "mode": 4
        }
      ]
    }
  ],
  "nodes": [
    {
      "children": [
        1,
        3
      ],
      "name": "shouldercuff.l"
    },
    {
      "children": [
        2
      ],
      "name": "bot.002"
    },
    {
      "mesh": 0,
      "name": "Cube.064"
    },
    {
      "children": [
        4,
        8
      ],
      "name": "core",
      "translation": [
        0.0,
        0.0,
        -0.265422880649567
      ]
    },
    {
      "children": [
        5
      ],
      "name": "shoulder.l",
      "rotation": [
        -2.66925361813719e-08,
        -2.66925397340856e-08,
        -0.70710676908493,
        0.70710676908493
      ],
      "scale": [
        0.999999940395355,
        0.999999940395355,
        1.0
      ],
      "translation": [
        0.0,
        0.912389516830444,
        0.0
      ]
    },
    {
      "children": [
        6
      ],
      "name": "shouldercuff.l",
      "translation": [
        -2.00388701188103e-08,
        1.39999997615814,
        9.27884968859871e-09
      ]
    },
    {
      "children": [
        7
      ],
      "name": "guh.l",
      "rotation": [
        -5.63363357741764e-07,
        -5.09978235641029e-07,
        -0.70710676908493,
        0.70710676908493
      ],
      "scale": [
        0.999999940395355,
        0.999999940395355,
        1.0
      ],
      "translation": [
        -2.00388701188103e-08,
        0.722780823707581,
        9.27884968859871e-09
      ]
    },
    {
      "name": "arm.l",
      "rotation": [
        -5.04870979341448e-29,
        5.64259948987456e-07,
        8.42306231549735e-28,
        1.0
      ],
      "translation": [
        7.39426866402937e-08,
        0.65591037273407,
        3.59091245627496e-09
      ]
    },
    {
      "children": [
        9
      ],
      "name": "shoulder.r",
      "rotation": [
        -2.66925361813719e-08,
        2.66925397340856e-08,
        0.70710676908493,
        0.70710676908493
      ],
      "scale": [
        0.999999940395355,
        0.999999940395355,
        1.0
      ],
      "translation": [
        0.0,
        0.912389516830444,
        0.0
      ]
    },
    {
      "children": [
        10
      ],
      "name": "shouldercuff.r",
      "translation": [
        2.00388701188103e-08,
        1.39999997615814,
        9.27884968859871e-09
      ]
    },
    {
      "children": [
        11
      ],
      "name": "guh.r",
      "rotation": [
        -2.26188561214258e-07,
        1.72803510167796e-07,
        0.70710676908493,
        0.70710676908493
      ],
      "scale": [
        0.999999940395355,
        0.999999940395355,
        1.0
      ],
      "translation": [
        2.00388701188103e-08,
        0.722780823707581,
        9.27884968859871e-09
      ]
    },
    {
      "name": "arm.r",
      "rotation": [
        -1.01634299198849e-07,
        -8.74227907843306e-08,
        -4.84630104059455e-14,
        1.0
      ],
      "translation": [
        -8.86510775899296e-08,
        0.65591037273407,
        5.70730662730057e-09
      ]
    }
  ],
  "samplers": [
    {
      "magFilter": 9729,
      "minFilter": 9985,
      "wrapS": 10497,
      "wrapT": 10497
    }
  ],
  "scene": 0,
  "scenes": [
    {
      "name": "Scene",
      "nodes": [
        0
      ]
    }
  ],
  "textures": [
    {
      "sampler": 0,
      "source": 0
    },
    {
      "sampler": 0,
      "source": 1
    },
    {
      "sampler": 0,
      "source": 2
    }
  ]
}