{
  "accessors": [
    {
      "bufferView": 0,
      "componentType": 5125,
      "count": 2016,
      "type": "SCALAR"
    },
    {
      "bufferView": 1,
      "componentType": 5126,
      "count": 1026,
      "max": [
        2.33676195144653,
        1.8378986120224,
        1.02911877632141
      ],
      "min": [
        -2.33676195144653,
        -1.34515225887299,
        -1.90163779258728
      ],
      "type": "VEC3"
    },
    {
      "bufferView": 2,
      "componentType": 5126,
      "count": 1026,
      "type": "VEC3"
    },
    {
      "bufferView": 3,
      "componentType": 5126,
      "count": 1026,
      "type": "VEC4"
    },
    {
      "bufferView": 4,
      "componentType": 5126,
      "count": 1026,
      "type": "VEC2"
    }
  ],
  "asset": {
    "generator": "Adobe Substance 3D Painter 9.1.2",
    "version": "2.0"
  },
  "bufferViews": [
    {
      "buffer": 0,
      "byteLength": 8064,
      "target": 34963
    },
    {
      "buffer": 0,
      "byteLength": 12312,
      "byteOffset": 8064,
      "target": 34962
    },
    {
      "buffer": 0,
      "byteLength": 12312,
      "byteOffset": 20376,
      "target": 34962
    },
    {
      "buffer": 0,
      "byteLength": 16416,
      "byteOffset": 32688,
      "target": 34962
    },
    {
      "buffer": 0,
      "byteLength": 8208,
      "byteOffset": 49104,
      "target": 34962
    }
  ],
  "buffers": [
    {
      "byteLength": 57312,
      "uri": "lightbody.bin"
    }
  ],
  "images": [
    {
      "uri": "DefaultMaterial_baseColor.png"
    },
    {
      "uri": "DefaultMaterial_occlusionRoughnessMetallic.png"
    },
    {
      "uri": "DefaultMaterial_normal.png"
    }
  ],
  "materials": [
    {
      "alphaMode": "OPAQUE",
      "name": "DefaultMaterial",
      "normalTexture": {
        "index": 2
      },
      "occlusionTexture": {
        "index": 1
      },
      "pbrMetallicRoughness": {
        "baseColorTexture": {
          "index": 0
        },
        "metallicRoughnessTexture": {
          "index": 1
        }
      }
    }
  ],
  "meshes": [
    {
      "name": "Cube.032",
      "primitives": [
        {
          "attributes": {
            "NORMAL": 2,
            "POSITION": 1,
            "TANGENT": 3,
            "TEXCOORD_0": 4
          },
          "indices": 0,
          "material": 0,
          "mode": 4
        }
      ]
    }
  ],
  "nodes": [
    {
      "children": [
        1,
        3
      ],
      "name": "shouldercuff.l"
    },
    {
      "children": [
        2
      ],
      "name": "Cube.027"
    },
    {
      "mesh": 0,
      "name": "Cube.032"
    },
    {
      "children": [
        4,
        8
      ],
      "name": "core",
      "translation": [
        0.0,
        0.0,
        -0.265422880649567
      ]
    },
    {
      "children": [
        5
      ],
      "name": "shoulder.l",
      "rotation": [
        -2.66925361813719e-08,
        -2.66925397340856e-08,
        -0.70710676908493,
        0.70710676908493
      ],
      "scale": [
        0.999999940395355,
        0.999999940395355,
        1.0
      ],
      "translation": [
        0.0,
        0.745194017887115,
        0.0
      ]
    },
    {
      "children": [
        6
      ],
      "name": "shouldercuff.l",
      "translation": [
        -2.00388701188103e-08,
        1.39999997615814,
        -3.34405925173087e-09
      ]
    },
    {
      "children": [
        7
      ],
      "name": "guh.l",
      "rotation": [
        -2.26188561214258e-07,
        -1.72803510167796e-07,
        -0.70710676908493,
        0.70710676908493
      ],
      "scale": [
        0.999999940395355,
        0.999999940395355,
        1.0
      ],
      "translation": [
        -2.00388701188103e-08,
        0.399999976158142,
        -3.34405925173087e-09
      ]
    },
    {
      "name": "arm.l",
      "rotation": [
        -2.52435489670724e-29,
        8.74227907843306e-08,
        3.13177779372742e-28,
        1.0
      ],
      "translation": [
        -3.05582119608516e-08,
        0.276843786239624,
        2.38890152104432e-09
      ]
    },
    {
      "children": [
        9
      ],
      "name": "shoulder.r",
      "rotation": [
        -2.66925361813719e-08,
        2.66925397340856e-08,
        0.70710676908493,
        0.70710676908493
      ],
      "scale": [
        0.999999940395355,
        0.999999940395355,
        1.0
      ],
      "translation": [
        0.0,
        0.745194017887115,
        0.0
      ]
    },
    {
      "children": [
        10
      ],
      "name": "shouldercuff.r",
      "translation": [
        2.00388701188103e-08,
        1.39999997615814,
        -3.34405925173087e-09
      ]
    },
    {
      "children": [
        11
      ],
      "name": "guh.r",
      "rotation": [
        -2.26188561214258e-07,
        1.72803510167796e-07,
        0.70710676908493,
        0.70710676908493
      ],
      "scale": [
        0.999999940395355,
        0.999999940395355,
        1.0
      ],
      "translation": [
        2.00388701188103e-08,
        0.399999976158142,
        -3.34405925173087e-09
      ]
    },
    {
      "name": "arm.r",
      "rotation": [
        -2.52435489670724e-29,
        -8.74227907843306e-08,
        -3.13177779372742e-28,
        1.0
      ],
      "translation": [
        3.05582119608516e-08,
        0.276843786239624,
        2.38890152104432e-09
      ]
    }
  ],
  "samplers": [
    {
      "magFilter": 9729,
      "minFilter": 9985,
      "wrapS": 10497,
      "wrapT": 10497
    }
  ],
  "scene": 0,
  "scenes": [
    {
      "name": "Scene",
      "nodes": [
        0
      ]
    }
  ],
  "textures": [
    {
      "sampler": 0,
      "source": 0
    },
    {
      "sampler": 0,
      "source": 1
    },
    {
      "sampler": 0,
      "source": 2
    }
  ]
}