{
  "accessors": [
    {
      "bufferView": 0,
      "componentType": 5125,
      "count": 4956,
      "type": "SCALAR"
    },
    {
      "bufferView": 1,
      "componentType": 5126,
      "count": 2498,
      "max": [
        2.00218915939331,
        6.31649398803711,
        2.05719637870789
      ],
      "min": [
        -2.7572193145752,
        -0.000272274017333984,
        -2.367431640625
      ],
      "type": "VEC3"
    },
    {
      "bufferView": 2,
      "componentType": 5126,
      "count": 2498,
      "type": "VEC3"
    },
    {
      "bufferView": 3,
      "componentType": 5126,
      "count": 2498,
      "type": "VEC4"
    },
    {
      "bufferView": 4,
      "componentType": 5126,
      "count": 2498,
      "type": "VEC2"
    }
  ],
  "asset": {
    "generator": "Adobe Substance 3D Painter 9.1.2",
    "version": "2.0"
  },
  "bufferViews": [
    {
      "buffer": 0,
      "byteLength": 19824,
      "target": 34963
    },
    {
      "buffer": 0,
      "byteLength": 29976,
      "byteOffset": 19824,
      "target": 34962
    },
    {
      "buffer": 0,
      "byteLength": 29976,
      "byteOffset": 49800,
      "target": 34962
    },
    {
      "buffer": 0,
      "byteLength": 39968,
      "byteOffset": 79776,
      "target": 34962
    },
    {
      "buffer": 0,
      "byteLength": 19984,
      "byteOffset": 119744,
      "target": 34962
    }
  ],
  "buffers": [
    {
      "byteLength": 139728,
      "uri": "player.bin"
    }
  ],
  "images": [
    {
      "uri": "DefaultMaterial_baseColor.png"
    },
    {
      "uri": "DefaultMaterial_occlusionRoughnessMetallic.png"
    },
    {
      "uri": "DefaultMaterial_normal.png"
    }
  ],
  "materials": [
    {
      "alphaMode": "OPAQUE",
      "name": "DefaultMaterial",
      "normalTexture": {
        "index": 2
      },
      "occlusionTexture": {
        "index": 1
      },
      "pbrMetallicRoughness": {
        "baseColorTexture": {
          "index": 0
        },
        "metallicRoughnessTexture": {
          "index": 1
        }
      }
    }
  ],
  "meshes": [
    {
      "name": "Cube.001",
      "primitives": [
        {
          "attributes": {
            "NORMAL": 2,
            "POSITION": 1,
            "TANGENT": 3,
            "TEXCOORD_0": 4
          },
          "indices": 0,
          "material": 0,
          "mode": 4
        }
      ]
    }
  ],
  "nodes": [
    {
      "children": [
        1,
        3
      ],
      "name": "foot.l"
    },
    {
      "children": [
        2
      ],
      "name": "Cube.001"
    },
    {
      "mesh": 0,
      "name": "Cube.001"
    },
    {
      "children": [
        4,
        7,
        14
      ],
      "name": "groin",
      "rotation": [
        0.70710688829422,
        0.0,
        -0.707106649875641,
        0.0
      ],
      "scale": [
        0.999999940395355,
        1.0,
        0.999999940395355
      ],
      "translation": [
        0.0,
        4.26426553726196,
        0.395524084568024
      ]
    },
    {
      "children": [
        5
      ],
      "name": "waist.l",
      "rotation": [
        -0.707106709480286,
        -2.26188561214258e-07,
        1.72803467535232e-07,
        0.707106828689575
      ],
      "scale": [
        1.0,
        0.999999940395355,
        0.999999940395355
      ],
      "translation": [
        0.0,
        0.841917753219604,
        0.0
      ]
    },
    {
      "children": [
        6
      ],
      "name": "thigh.l",
      "rotation": [
        0.706857264041901,
        -0.0187834277749062,
        0.0187829732894897,
        0.706857264041901
      ],
      "scale": [
        0.999999940395355,
        0.999999940395355,
        0.999999940395355
      ],
      "translation": [
        6.0572347138077e-09,
        1.18242120742798,
        -1.52401753439335e-08
      ]
    },
    {
      "name": "leg.l",
      "rotation": [
        -2.28579448702249e-08,
        1.24457272931977e-07,
        -0.0439422950148582,
        0.99903404712677
      ],
      "scale": [
        0.999999940395355,
        0.999999940395355,
        1.0
      ],
      "translation": [
        -3.12270458380226e-08,
        1.20169603824615,
        1.52313077705912e-08
      ]
    },
    {
      "children": [
        8,
        9,
        10
      ],
      "name": "groin.001",
      "rotation": [
        0.707106947898865,
        0.0,
        -0.707106590270996,
        0.0
      ],
      "scale": [
        0.999999940395355,
        0.999999940395355,
        0.999999940395355
      ],
      "translation": [
        0.170905485749245,
        -0.310896873474121,
        1.29030048867662e-08
      ]
    },
    {
      "name": "rack.l",
      "rotation": [
        -0.707106709480286,
        -5.02429535828445e-15,
        -1.68587376947471e-07,
        0.707106828689575
      ],
      "scale": [
        1.0,
        0.999999940395355,
        0.999999940395355
      ],
      "translation": [
        1.1816725730896,
        0.943434238433838,
        -0.857435405254364
      ]
    },
    {
      "name": "rack.r",
      "rotation": [
        -0.707106709480286,
        -1.68587376947471e-07,
        -1.00485907165689e-14,
        0.707106828689575
      ],
      "scale": [
        1.0,
        0.999999940395355,
        0.999999940395355
      ],
      "translation": [
        -1.18167233467102,
        0.943434238433838,
        -0.857435882091522
      ]
    },
    {
      "children": [
        11
      ],
      "name": "shoulder",
      "rotation": [
        -1.41894886951377e-07,
        -4.21608259415507e-09,
        0.70710676908493,
        0.70710676908493
      ],
      "scale": [
        0.999999940395355,
        0.999999940395355,
        1.0
      ],
      "translation": [
        0.0,
        0.747957229614258,
        0.0
      ]
    },
    {
      "children": [
        12
      ],
      "name": "shouldersocket",
      "rotation": [
        7.105427357601e-15,
        3.5527136788005e-15,
        1.3834775479018e-21,
        1.0
      ],
      "translation": [
        -4.37348575133001e-08,
        1.60000002384186,
        -6.63144428258988e-09
      ]
    },
    {
      "children": [
        13
      ],
      "name": "guh",
      "rotation": [
        -1.22224463439125e-07,
        -1.54543080554959e-08,
        0.70710676908493,
        0.70710676908493
      ],
      "scale": [
        0.999999940395355,
        0.999999940395355,
        1.0
      ],
      "translation": [
        -4.37348575133001e-08,
        0.49999988079071,
        -6.63146693113958e-09
      ]
    },
    {
      "name": "arm",
      "rotation": [
        -2.55796839276787e-28,
        4.84849268656387e-42,
        1.69406569256021e-21,
        1.0
      ],
      "translation": [
        -3.39164643037293e-08,
        0.491556644439697,
        4.16679313275381e-09
      ]
    },
    {
      "children": [
        15
      ],
      "name": "waist.r",
      "rotation": [
        -1.91063847410078e-07,
        0.70710676908493,
        0.70710676908493,
        -1.37678796363616e-07
      ],
      "scale": [
        0.99999988079071,
        0.999999940395355,
        0.999999940395355
      ],
      "translation": [
        0.0,
        0.841917753219604,
        0.0
      ]
    },
    {
      "children": [
        16
      ],
      "name": "thigh.r",
      "rotation": [
        0.706857264041901,
        0.018783463165164,
        -0.0187830068171024,
        0.706857264041901
      ],
      "scale": [
        0.999999940395355,
        0.999999940395355,
        0.999999940395355
      ],
      "translation": [
        1.15683178592008e-08,
        1.18242120742798,
        -5.45345812952291e-08
      ]
    },
    {
      "name": "leg.r",
      "rotation": [
        -2.29015064689975e-08,
        -1.24281143598637e-07,
        0.0439422875642776,
        0.99903404712677
      ],
      "scale": [
        0.999999940395355,
        0.999999940395355,
        0.999999940395355
      ],
      "translation": [
        4.67720155938878e-08,
        1.20169591903687,
        1.34910607130223e-07
      ]
    }
  ],
  "samplers": [
    {
      "magFilter": 9729,
      "minFilter": 9985,
      "wrapS": 10497,
      "wrapT": 10497
    }
  ],
  "scene": 0,
  "scenes": [
    {
      "name": "Scene",
      "nodes": [
        0
      ]
    }
  ],
  "textures": [
    {
      "sampler": 0,
      "source": 0
    },
    {
      "sampler": 0,
      "source": 1
    },
    {
      "sampler": 0,
      "source": 2
    }
  ]
}