{
  "accessors": [
    {
      "bufferView": 0,
      "componentType": 5125,
      "count": 636,
      "type": "SCALAR"
    },
    {
      "bufferView": 1,
      "componentType": 5126,
      "count": 305,
      "max": [
        0.325765490531921,
        1.32785701751709,
        2.41381669044495
      ],
      "min": [
        -0.320468306541443,
        -1.46252918243408,
        -1.84272849559784
      ],
      "type": "VEC3"
    },
    {
      "bufferView": 2,
      "componentType": 5126,
      "count": 305,
      "type": "VEC3"
    },
    {
      "bufferView": 3,
      "componentType": 5126,
      "count": 305,
      "type": "VEC4"
    },
    {
      "bufferView": 4,
      "componentType": 5126,
      "count": 305,
      "type": "VEC2"
    }
  ],
  "asset": {
    "generator": "Adobe Substance 3D Painter 9.1.2",
    "version": "2.0"
  },
  "bufferViews": [
    {
      "buffer": 0,
      "byteLength": 2544,
      "target": 34963
    },
    {
      "buffer": 0,
      "byteLength": 3660,
      "byteOffset": 2544,
      "target": 34962
    },
    {
      "buffer": 0,
      "byteLength": 3660,
      "byteOffset": 6204,
      "target": 34962
    },
    {
      "buffer": 0,
      "byteLength": 4880,
      "byteOffset": 9864,
      "target": 34962
    },
    {
      "buffer": 0,
      "byteLength": 2440,
      "byteOffset": 14744,
      "target": 34962
    }
  ],
  "buffers": [
    {
      "byteLength": 17184,
      "uri": "Untitled.bin"
    }
  ],
  "images": [
    {
      "uri": "DefaultMaterial_baseColor.png"
    },
    {
      "uri": "DefaultMaterial_occlusionRoughnessMetallic.png"
    },
    {
      "uri": "DefaultMaterial_normal.png"
    }
  ],
  "materials": [
    {
      "alphaMode": "OPAQUE",
      "name": "DefaultMaterial",
      "normalTexture": {
        "index": 2
      },
      "occlusionTexture": {
        "index": 1
      },
      "pbrMetallicRoughness": {
        "baseColorTexture": {
          "index": 0
        },
        "metallicRoughnessTexture": {
          "index": 1
        }
      }
    }
  ],
  "meshes": [
    {
      "name": "Cube.002",
      "primitives": [
        {
          "attributes": {
            "NORMAL": 2,
            "POSITION": 1,
            "TANGENT": 3,
            "TEXCOORD_0": 4
          },
          "indices": 0,
          "material": 0,
          "mode": 4
        }
      ]
    }
  ],
  "nodes": [
    {
      "children": [
        1
      ],
      "name": "Cube.005"
    },
    {
      "mesh": 0,
      "name": "Cube.002"
    }
  ],
  "samplers": [
    {
      "magFilter": 9729,
      "minFilter": 9985,
      "wrapS": 10497,
      "wrapT": 10497
    }
  ],
  "scene": 0,
  "scenes": [
    {
      "name": "Scene",
      "nodes": [
        0
      ]
    }
  ],
  "textures": [
    {
      "sampler": 0,
      "source": 0
    },
    {
      "sampler": 0,
      "source": 1
    },
    {
      "sampler": 0,
      "source": 2
    }
  ]
}