{
  "accessors": [
    {
      "bufferView": 0,
      "componentType": 5125,
      "count": 2310,
      "type": "SCALAR"
    },
    {
      "bufferView": 1,
      "componentType": 5126,
      "count": 1215,
      "max": [
        1.39783024787903,
        4.43500423431396,
        0.998091459274292
      ],
      "min": [
        -1.39783024787903,
        0.00499272346496582,
        -0.806610643863678
      ],
      "type": "VEC3"
    },
    {
      "bufferView": 2,
      "componentType": 5126,
      "count": 1215,
      "type": "VEC3"
    },
    {
      "bufferView": 3,
      "componentType": 5126,
      "count": 1215,
      "type": "VEC4"
    },
    {
      "bufferView": 4,
      "componentType": 5126,
      "count": 1215,
      "type": "VEC2"
    }
  ],
  "asset": {
    "generator": "Adobe Substance 3D Painter 9.1.2",
    "version": "2.0"
  },
  "bufferViews": [
    {
      "buffer": 0,
      "byteLength": 9240,
      "target": 34963
    },
    {
      "buffer": 0,
      "byteLength": 14580,
      "byteOffset": 9240,
      "target": 34962
    },
    {
      "buffer": 0,
      "byteLength": 14580,
      "byteOffset": 23820,
      "target": 34962
    },
    {
      "buffer": 0,
      "byteLength": 19440,
      "byteOffset": 38400,
      "target": 34962
    },
    {
      "buffer": 0,
      "byteLength": 9720,
      "byteOffset": 57840,
      "target": 34962
    }
  ],
  "buffers": [
    {
      "byteLength": 67560,
      "uri": "lightlegs.bin"
    }
  ],
  "images": [
    {
      "uri": "DefaultMaterial_baseColor.png"
    },
    {
      "uri": "DefaultMaterial_occlusionRoughnessMetallic.png"
    },
    {
      "uri": "DefaultMaterial_normal.png"
    }
  ],
  "materials": [
    {
      "alphaMode": "OPAQUE",
      "name": "DefaultMaterial",
      "normalTexture": {
        "index": 2
      },
      "occlusionTexture": {
        "index": 1
      },
      "pbrMetallicRoughness": {
        "baseColorTexture": {
          "index": 0
        },
        "metallicRoughnessTexture": {
          "index": 1
        }
      }
    }
  ],
  "meshes": [
    {
      "name": "Cube.022",
      "primitives": [
        {
          "attributes": {
            "NORMAL": 2,
            "POSITION": 1,
            "TANGENT": 3,
            "TEXCOORD_0": 4
          },
          "indices": 0,
          "material": 0,
          "mode": 4
        }
      ]
    }
  ],
  "nodes": [
    {
      "children": [
        1,
        3
      ],
      "name": "Armature"
    },
    {
      "children": [
        2
      ],
      "name": "legs"
    },
    {
      "mesh": 0,
      "name": "Cube.022"
    },
    {
      "children": [
        4,
        7
      ],
      "name": "core",
      "rotation": [
        0.70710688829422,
        0.0,
        -0.707106649875641,
        0.0
      ],
      "scale": [
        0.999999940395355,
        1.0,
        0.999999940395355
      ],
      "translation": [
        0.0,
        4.01468324661255,
        0.0
      ]
    },
    {
      "children": [
        5
      ],
      "name": "hip.l",
      "rotation": [
        -0.707106709480286,
        -1.41894830107958e-07,
        8.85097577452143e-08,
        0.707106828689575
      ],
      "scale": [
        1.0,
        0.99999988079071,
        0.99999988079071
      ],
      "translation": [
        0.0,
        0.583873987197876,
        0.0
      ]
    },
    {
      "children": [
        6
      ],
      "name": "thigh.l",
      "rotation": [
        0.706203699111938,
        -0.0357250571250916,
        0.0357247442007065,
        0.706203818321228
      ],
      "scale": [
        0.999999940395355,
        1.0,
        0.999999940395355
      ],
      "translation": [
        0.0,
        0.930576801300049,
        -2.38418579101562e-07
      ]
    },
    {
      "name": "leg.l",
      "rotation": [
        -3.22719486689493e-08,
        2.68192508201537e-08,
        -0.0806762650609016,
        0.996740341186523
      ],
      "scale": [
        0.999999940395355,
        0.999999940395355,
        1.0
      ],
      "translation": [
        -1.12824807274592e-08,
        0.997168898582458,
        -9.0783601081057e-08
      ]
    },
    {
      "children": [
        8
      ],
      "name": "hip.r",
      "rotation": [
        -1.06770158936342e-07,
        0.70710676908493,
        0.70710676908493,
        -5.33850830208848e-08
      ],
      "scale": [
        0.99999988079071,
        0.999999642372131,
        0.99999988079071
      ],
      "translation": [
        0.0,
        0.583873987197876,
        0.0
      ]
    },
    {
      "children": [
        9
      ],
      "name": "thigh.r",
      "rotation": [
        0.706203818321228,
        0.0357250943779945,
        -0.0357247926294804,
        0.706203699111938
      ],
      "scale": [
        0.999999940395355,
        1.0,
        1.0
      ],
      "translation": [
        8.470329472543e-22,
        0.930576801300049,
        -2.38418579101562e-07
      ]
    },
    {
      "name": "leg.r",
      "rotation": [
        -3.38610917083315e-08,
        -1.14082707725061e-08,
        0.080676257610321,
        0.996740341186523
      ],
      "scale": [
        0.999999940395355,
        0.99999988079071,
        1.0
      ],
      "translation": [
        2.68809685621818e-09,
        0.997169256210327,
        -8.92335805247058e-08
      ]
    }
  ],
  "samplers": [
    {
      "magFilter": 9729,
      "minFilter": 9985,
      "wrapS": 10497,
      "wrapT": 10497
    }
  ],
  "scene": 0,
  "scenes": [
    {
      "name": "Scene",
      "nodes": [
        0
      ]
    }
  ],
  "textures": [
    {
      "sampler": 0,
      "source": 0
    },
    {
      "sampler": 0,
      "source": 1
    },
    {
      "sampler": 0,
      "source": 2
    }
  ]
}